<svg width="20" height="20" xmlns="http://www.w3.org/2000/svg" fill="none">

 <g>
  <title>Layer 1</title>
  <path id="svg_1" d="m1.563,1.281l0.949,0c0.246,0 0.422,0.211 0.422,0.457l-0.07,3.446a8.6,8.6 0 0 1 7.277,-3.868c4.816,0 8.718,3.938 8.718,8.72c-0.035,4.816 -3.937,8.683 -8.718,8.683a8.86,8.86 0 0 1 -5.871,-2.215a0.446,0.446 0 0 1 0,-0.633l0.703,-0.703c0.14,-0.14 0.386,-0.14 0.562,0c1.23,1.09 2.813,1.723 4.606,1.723a6.88,6.88 0 0 0 6.889,-6.891c0,-3.797 -3.093,-6.89 -6.89,-6.89c-2.813,0 -5.203,1.687 -6.293,4.078l4.43,-0.106c0.245,0 0.456,0.176 0.456,0.422l0,0.95c0,0.245 -0.21,0.421 -0.421,0.421l-6.75,0a0.406,0.406 0 0 1 -0.422,-0.422l0,-6.75c0,-0.21 0.175,-0.422 0.422,-0.422" fill="#111111"/>
 </g>
</svg>