<?xml version="1.0" encoding="UTF-8" standalone="no"?><!DOCTYPE svg PUBLIC "-//W3C//DTD SVG 1.1//EN" "http://www.w3.org/Graphics/SVG/1.1/DTD/svg11.dtd"><svg width="100%" height="100%" viewBox="0 0 119 119" version="1.1" xmlns="http://www.w3.org/2000/svg" xmlns:xlink="http://www.w3.org/1999/xlink" xml:space="preserve" xmlns:serif="http://www.serif.com/" style="fill-rule:evenodd;clip-rule:evenodd;stroke-linejoin:round;stroke-miterlimit:2;"><circle cx="59.5" cy="59.5" r="59" style="fill:#05461b;fill-opacity:0.68;"/><circle cx="59.5" cy="59.5" r="45" style="fill:#186833;fill-opacity:0.51;"/><rect id="ArtBoard1" x="0" y="0" width="119" height="119" style="fill:none;"/><g><clipPath id="_clip1"><path d="M27.5,59.5c0,-17.673 14.327,-32 32,-32c17.673,0 32,14.327 32,32c0,17.673 -14.327,32 -32,32c-17.673,0 -32,-14.327 -32,-32"/></clipPath><g clip-path="url(#_clip1)"><path d="M-2.5,59.5c0,-34.241 27.759,-62 62,-62c34.241,0 62,27.759 62,62c0,34.241 -27.759,62 -62,62c-34.241,0 -62,-27.759 -62,-62" style="fill:#121212;fill-rule:nonzero;"/><path d="M72.95,53.51l-15.555,15.557c-0.472,0.475 -1.115,0.742 -1.785,0.741c-0.65,0 -1.294,-0.245 -1.79,-0.74l-7.777,-7.778c-0.441,-0.469 -0.687,-1.088 -0.687,-1.732c0,-1.386 1.141,-2.527 2.527,-2.527c0.642,0 1.261,0.245 1.73,0.685l5.997,5.992l13.766,-13.77c0.474,-0.474 1.117,-0.74 1.787,-0.74c1.386,0 2.527,1.141 2.527,2.527c0,0.67 -0.266,1.313 -0.74,1.787m-13.45,-26.012c-17.644,0 -32,14.356 -32,32c0,17.647 14.356,32 32,32c17.644,0 32,-14.353 32,-32c0,-17.644 -14.356,-32 -32,-32" style="fill:#4dd67b;"/></g></g></svg>